<?xml version="1.0" encoding="UTF-8" standalone="no"?>
<!-- Uploaded to: SVG Repo, www.svgrepo.com, Generator: SVG Repo Mixer Tools -->

<svg
   width="800px"
   height="800px"
   viewBox="0 0 24 24"
   fill="none"
   version="1.1"
   id="svg1"
   sodipodi:docname="web.svg"
   inkscape:version="1.3.2 (091e20e, 2023-11-25, custom)"
   xmlns:inkscape="http://www.inkscape.org/namespaces/inkscape"
   xmlns:sodipodi="http://sodipodi.sourceforge.net/DTD/sodipodi-0.dtd"
   xmlns="http://www.w3.org/2000/svg"
   xmlns:svg="http://www.w3.org/2000/svg">
  <defs
     id="defs1" />
  <sodipodi:namedview
     id="namedview1"
     pagecolor="#ffffff"
     bordercolor="#000000"
     borderopacity="0.25"
     inkscape:showpageshadow="2"
     inkscape:pageopacity="0.0"
     inkscape:pagecheckerboard="0"
     inkscape:deskcolor="#d1d1d1"
     inkscape:zoom="1.06875"
     inkscape:cx="400.93567"
     inkscape:cy="400.93567"
     inkscape:window-width="1920"
     inkscape:window-height="1111"
     inkscape:window-x="-9"
     inkscape:window-y="-9"
     inkscape:window-maximized="1"
     inkscape:current-layer="svg1" />
  <path
     fill-rule="evenodd"
     clip-rule="evenodd"
     d="m 9.1302952,20.5579 c 0.2284071,0.428114 0.4571329,0.813881 0.6757697,1.155709 -2.3229003,-0.522366 -4.3385408,-1.856621 -5.7333031,-3.689082 0.9205181,-0.518383 2.099511,-1.055749 3.5168804,-1.44895 0.4028387,1.579973 0.9711618,2.914494 1.540653,3.982323 z M 10.887302,19.620828 C 10.392548,18.693314 9.8967322,17.53495 9.5395058,16.162463 c 0.7690122,-0.114164 1.5899292,-0.180007 2.4606272,-0.180007 0.870565,0 1.691482,0.06584 2.460361,0.179874 -0.357226,1.37262 -0.853042,2.530984 -1.347796,3.458498 -0.396652,0.74379 -0.791845,1.337574 -1.112698,1.77206 -0.320853,-0.434486 -0.716046,-1.02827 -1.112698,-1.77206 z M 9.0131579,12 c 0,0.775384 0.05217,1.511342 0.1441649,2.206148 0.8871582,-0.136067 1.8356472,-0.21492 2.8428102,-0.21492 1.00703,0 1.955518,0.07872 2.842544,0.21492 0.092,-0.694939 0.144165,-1.430764 0.144165,-2.206148 0,-0.775384 -0.05217,-1.511209 -0.144165,-2.206148 -0.887026,0.1360673 -1.835514,0.21492 -2.842544,0.21492 -1.007163,0 -1.955652,-0.078853 -2.8428102,-0.21492 C 9.0653281,10.488658 9.0131579,11.224616 9.0131579,12 Z M 7.203636,9.3832608 C 7.0879988,10.204974 7.0219298,11.077929 7.0219298,12 c 0,0.922071 0.066069,1.795026 0.1817062,2.616739 C 5.5130834,15.070606 4.1131704,15.710587 3.0304999,16.326408 2.3982717,15.018171 2.0438596,13.550503 2.0438596,12 c 0,-1.550503 0.3544121,-3.0181177 0.986627,-4.3264342 1.0825511,0.6157409 2.4824906,1.2557747 4.1731494,1.709695 z M 9.5395058,7.8376032 c 0.7690122,0.1141239 1.5899292,0.1799407 2.4606272,0.1799407 0.870565,0 1.691482,-0.065803 2.460361,-0.1799141 C 14.103268,6.4651161 13.607452,5.3067258 13.112698,4.3791719 12.716046,3.635435 12.320853,3.0415446 12,2.6071382 11.679147,3.0415446 11.283954,3.635435 10.887302,4.3791454 10.392548,5.3066992 9.8967322,6.4650895 9.5395058,7.8376032 Z M 16.796337,9.3833936 C 16.911961,10.205107 16.97807,11.078061 16.97807,12 c 0,0.922071 -0.06611,1.794893 -0.181733,2.616606 1.690553,0.454 3.090519,1.093981 4.173216,1.709802 C 21.601702,15.018038 21.95614,13.55037 21.95614,12 c 0,-1.55037 -0.354438,-3.0180778 -0.986587,-4.3263678 -1.082564,0.6157408 -2.48253,1.2557614 -4.173216,1.7097614 z M 19.927212,5.9755793 C 19.006601,6.4940022 17.827661,7.0312886 16.410437,7.4245296 16.007546,5.8445034 15.439249,4.509916 14.869758,3.4421265 14.641298,3.0139461 14.412572,2.6282851 14.193935,2.2863912 c 2.322967,0.5224053 4.338621,1.8567007 5.733277,3.6891881 z M 7.5896289,7.4244898 C 6.1723525,7.0312355 4.9933994,6.4939491 4.072775,5.9755129 5.4675241,4.1430654 7.4831646,2.8087965 9.8059322,2.2863912 9.5874281,2.6282851 9.3587023,3.0139329 9.1302819,3.4421 8.560804,4.5098894 7.9924809,5.8444636 7.5896289,7.4244898 Z m 8.8208081,9.1509542 c -0.402891,1.580106 -0.971188,2.914627 -1.540679,3.982456 -0.22846,0.428114 -0.457186,0.813881 -0.675823,1.155709 2.322967,-0.522366 4.338621,-1.856754 5.733409,-3.689215 -0.920611,-0.518383 -2.09955,-1.055616 -3.516907,-1.44895 z M 12,23.947368 C 18.598399,23.947368 23.947368,18.598399 23.947368,12 23.947368,5.4016543 18.598399,0.05263158 12,0.05263158 5.4016543,0.05263158 0.05263158,5.4016543 0.05263158,12 0.05263158,18.598399 5.4016543,23.947368 12,23.947368 Z"
     fill="#080341"
     id="path1"
     style="fill:#000000;fill-opacity:1;stroke-width:1.32749" />
</svg>
